<svg id="SvgjsSvg1131" width="842" height="358" xmlns="http://www.w3.org/2000/svg" version="1.1" xmlns:xlink="http://www.w3.org/1999/xlink" xmlns:svgjs="http://svgjs.com/svgjs"><defs id="SvgjsDefs1132"><marker id="SvgjsMarker1146" markerWidth="16" markerHeight="12" refX="16" refY="6" viewBox="0 0 16 12" orient="auto" markerUnits="userSpaceOnUse"><path id="SvgjsPath1147" d="M0,2 L14,6 L0,11 L0,2" fill="#3333ff" stroke="#3333ff" stroke-width="2"></path></marker><marker id="SvgjsMarker1161" markerWidth="16" markerHeight="12" refX="16" refY="6" viewBox="0 0 16 12" orient="auto" markerUnits="userSpaceOnUse"><path id="SvgjsPath1162" d="M0,2 L14,6 L0,11 L0,2" fill="#ff0000" stroke="#ff0000" stroke-width="2"></path></marker><marker id="SvgjsMarker1169" markerWidth="16" markerHeight="12" refX="16" refY="6" viewBox="0 0 16 12" orient="auto" markerUnits="userSpaceOnUse"><path id="SvgjsPath1170" d="M0,2 L14,6 L0,11 L0,2" fill="#ff0000" stroke="#ff0000" stroke-width="2"></path></marker><marker id="SvgjsMarker1177" markerWidth="16" markerHeight="12" refX="16" refY="6" viewBox="0 0 16 12" orient="auto" markerUnits="userSpaceOnUse"><path id="SvgjsPath1178" d="M0,2 L14,6 L0,11 L0,2" fill="#ff0000" stroke="#ff0000" stroke-width="2"></path></marker><marker id="SvgjsMarker1185" markerWidth="16" markerHeight="12" refX="16" refY="6" viewBox="0 0 16 12" orient="auto" markerUnits="userSpaceOnUse"><path id="SvgjsPath1186" d="M0,2 L14,6 L0,11 L0,2" fill="#0000ff" stroke="#0000ff" stroke-width="2"></path></marker><marker id="SvgjsMarker1193" markerWidth="16" markerHeight="12" refX="16" refY="6" viewBox="0 0 16 12" orient="auto" markerUnits="userSpaceOnUse"><path id="SvgjsPath1194" d="M0,2 L14,6 L0,11 L0,2" fill="#0000ff" stroke="#0000ff" stroke-width="2"></path></marker><marker id="SvgjsMarker1249" markerWidth="16" markerHeight="12" refX="16" refY="6" viewBox="0 0 16 12" orient="auto" markerUnits="userSpaceOnUse"><path id="SvgjsPath1250" d="M0,2 L14,6 L0,11 L0,2" fill="#323232" stroke="#323232" stroke-width="2"></path></marker></defs><g id="SvgjsG1133" transform="translate(65,25)"><path id="SvgjsPath1134" d="M 0 0L 752 0L 752 308L 0 308Z" stroke="#323232" stroke-width="2" fill-opacity="1" fill="#ffffff"></path><g id="SvgjsG1135"><text id="SvgjsText1136" font-family="微软雅黑" text-anchor="middle" font-size="13px" width="0" fill="#323232" font-weight="400" align="middle" anchor="middle" family="微软雅黑" size="13px" weight="400" font-style="" y="144.05" transform="rotate(0)"></text></g></g><g id="SvgjsG1137" transform="translate(25,26)"><path id="SvgjsPath1138" d="M 0 0L 792 0L 792 133L 0 133Z" stroke="#323232" stroke-width="2" fill="none"></path><path id="SvgjsPath1139" d="M 0 0L 40 0L 40 133L 0 133Z" stroke="#323232" stroke-width="2" fill-opacity="1" fill="#ffffff"></path><g id="SvgjsG1140"><text id="SvgjsText1141" font-family="微软雅黑" text-anchor="middle" font-size="16px" width="64" fill="#323232" font-weight="400" align="middle" anchor="middle" family="微软雅黑" size="16px" weight="400" font-style="" y="7.6" transform="rotate(270)"><tspan id="SvgjsTspan1142" dy="20" x="-66.5"><tspan id="SvgjsTspan1143" style="text-decoration:;">开放托管</tspan></tspan></text></g></g><g id="SvgjsG1144"><path id="SvgjsPath1145" d="M135 211L135 78L161 78" stroke="#3333ff" stroke-width="2" fill="none" marker-end="url(#SvgjsMarker1146)"></path><rect id="SvgjsRect1148" width="82" height="16" x="94" y="123.5" fill="#ffffff"></rect><text id="SvgjsText1149" font-family="微软雅黑" text-anchor="middle" font-size="13px" width="82" fill="#0000ff" font-weight="700" align="top" anchor="middle" family="微软雅黑" size="13px" weight="700" font-style="" y="121.55" transform="rotate(0)"><tspan id="SvgjsTspan1150" dy="16" x="135"><tspan id="SvgjsTspan1151" style="text-decoration:;">TCP 连接托管</tspan></tspan></text></g><g id="SvgjsG1152" transform="translate(25,159)"><path id="SvgjsPath1153" d="M 0 0L 792 0L 792 174L 0 174Z" stroke="#323232" stroke-width="2" fill="none"></path><path id="SvgjsPath1154" d="M 0 0L 40 0L 40 174L 0 174Z" stroke="#323232" stroke-width="2" fill-opacity="1" fill="#ffffff"></path><g id="SvgjsG1155"><text id="SvgjsText1156" font-family="微软雅黑" text-anchor="middle" font-size="16px" width="48" fill="#323232" font-weight="400" align="middle" anchor="middle" family="微软雅黑" size="16px" weight="400" font-style="" y="7.6" transform="rotate(270)"><tspan id="SvgjsTspan1157" dy="20" x="-87"><tspan id="SvgjsTspan1158" style="text-decoration:;">被托管</tspan></tspan></text></g></g><g id="SvgjsG1159"><path id="SvgjsPath1160" d="M428 240L509 240L509 129" stroke="#ff0000" stroke-width="2" fill="none" marker-end="url(#SvgjsMarker1161)"></path><rect id="SvgjsRect1163" width="26" height="16" x="496.00000000000006" y="217" fill="#ffffff"></rect><text id="SvgjsText1164" font-family="微软雅黑" text-anchor="middle" font-size="13px" width="26" fill="#ff0000" font-weight="700" align="top" anchor="middle" family="微软雅黑" size="13px" weight="700" font-style="" y="215.05" transform="rotate(0)"><tspan id="SvgjsTspan1165" dy="16" x="509.00000000000006"><tspan id="SvgjsTspan1166" style="text-decoration:;">托管</tspan></tspan></text></g><g id="SvgjsG1167"><path id="SvgjsPath1168" d="M185 246L322 246L322 94L459 94" stroke="#ff0000" stroke-width="2" fill="none" marker-end="url(#SvgjsMarker1169)"></path><rect id="SvgjsRect1171" width="26" height="16" x="309" y="162" fill="#ffffff"></rect><text id="SvgjsText1172" font-family="微软雅黑" text-anchor="middle" font-size="13px" width="26" fill="#ff3333" font-weight="700" align="top" anchor="middle" family="微软雅黑" size="13px" weight="700" font-style="" y="160.05" transform="rotate(0)"><tspan id="SvgjsTspan1173" dy="16" x="322"><tspan id="SvgjsTspan1174" style="text-decoration:;">托管</tspan></tspan></text></g><g id="SvgjsG1175"><path id="SvgjsPath1176" d="M596.5 206L596.5 94L559 94" stroke="#ff0000" stroke-width="2" fill="none" marker-end="url(#SvgjsMarker1177)"></path><rect id="SvgjsRect1179" width="26" height="16" x="583.5" y="123.25" fill="#ffffff"></rect><text id="SvgjsText1180" font-family="微软雅黑" text-anchor="middle" font-size="13px" width="26" fill="#ff0000" font-weight="700" align="top" anchor="middle" family="微软雅黑" size="13px" weight="700" font-style="" y="121.3" transform="rotate(0)"><tspan id="SvgjsTspan1181" dy="16" x="596.5"><tspan id="SvgjsTspan1182" style="text-decoration:;">托管</tspan></tspan></text></g><g id="SvgjsG1183"><path id="SvgjsPath1184" d="M594 281L594 311L211 311L211 113" stroke="#0000ff" stroke-width="2" fill="none" marker-end="url(#SvgjsMarker1185)"></path><rect id="SvgjsRect1187" width="26" height="16" x="305.5" y="303" fill="#ffffff"></rect><text id="SvgjsText1188" font-family="微软雅黑" text-anchor="middle" font-size="13px" width="26" fill="#0000ff" font-weight="700" align="top" anchor="middle" family="微软雅黑" size="13px" weight="700" font-style="" y="301.05" transform="rotate(0)"><tspan id="SvgjsTspan1189" dy="16" x="318.5"><tspan id="SvgjsTspan1190" style="text-decoration:;">托管</tspan></tspan></text></g><g id="SvgjsG1191"><path id="SvgjsPath1192" d="M378 205L378 78L261 78" stroke="#0000ff" stroke-width="2" fill="none" marker-end="url(#SvgjsMarker1193)"></path><rect id="SvgjsRect1195" width="26" height="16" x="365" y="75.00000000000001" fill="#ffffff"></rect><text id="SvgjsText1196" font-family="微软雅黑" text-anchor="middle" font-size="13px" width="26" fill="#0000ff" font-weight="700" align="top" anchor="middle" family="微软雅黑" size="13px" weight="700" font-style="" y="73.05000000000001" transform="rotate(0)"><tspan id="SvgjsTspan1197" dy="16" x="378"><tspan id="SvgjsTspan1198" style="text-decoration:;">托管</tspan></tspan></text></g><g id="SvgjsG1199" transform="translate(161,43)"><path id="SvgjsPath1200" d="M 0 0L 100 0L 100 70L 0 70Z" stroke="#3333ff" stroke-width="2" fill-opacity="1" fill="#ffffff"></path><g id="SvgjsG1201"><text id="SvgjsText1202" font-family="微软雅黑" text-anchor="middle" font-size="13px" width="49" fill="#0000ff" font-weight="700" align="middle" anchor="middle" family="微软雅黑" size="13px" weight="700" font-style="" y="25.05" transform="rotate(0)"><tspan id="SvgjsTspan1203" dy="16" x="50"><tspan id="SvgjsTspan1204" style="text-decoration:;">Node 2 </tspan></tspan></text></g></g><g id="SvgjsG1205" transform="translate(85,211)"><path id="SvgjsPath1206" d="M 0 0L 100 0L 100 70L 0 70Z" stroke="#323232" stroke-width="2" fill-opacity="1" fill="#ffffff"></path><g id="SvgjsG1207"><text id="SvgjsText1208" font-family="微软雅黑" text-anchor="middle" font-size="13px" width="32" fill="#323232" font-weight="400" align="middle" anchor="middle" family="微软雅黑" size="13px" weight="400" font-style="" y="25.05" transform="rotate(0)"><tspan id="SvgjsTspan1209" dy="16" x="50"><tspan id="SvgjsTspan1210" style="text-decoration:;">Node</tspan></tspan></text></g></g><g id="SvgjsG1211" transform="translate(459,59)"><path id="SvgjsPath1212" d="M 0 0L 100 0L 100 70L 0 70Z" stroke="#ff0000" stroke-width="2" fill-opacity="1" fill="#ffffff"></path><g id="SvgjsG1213"><text id="SvgjsText1214" font-family="微软雅黑" text-anchor="middle" font-size="13px" width="42" fill="#ff0000" font-weight="700" align="middle" anchor="middle" family="微软雅黑" size="13px" weight="700" font-style="" y="25.05" transform="rotate(0)"><tspan id="SvgjsTspan1215" dy="16" x="50"><tspan id="SvgjsTspan1216" style="text-decoration:;">Node 1</tspan></tspan></text></g></g><g id="SvgjsG1217" transform="translate(328,205)"><path id="SvgjsPath1218" d="M 0 0L 100 0L 100 70L 0 70Z" stroke="#323232" stroke-width="2" fill-opacity="1" fill="#ffffff"></path><g id="SvgjsG1219"><text id="SvgjsText1220" font-family="微软雅黑" text-anchor="middle" font-size="13px" width="44" fill="#323232" font-weight="400" align="middle" anchor="middle" family="微软雅黑" size="13px" weight="400" font-style="" y="25.05" transform="rotate(0)"><tspan id="SvgjsTspan1221" dy="16" x="50"><tspan id="SvgjsTspan1222" style="text-decoration:;">Node 4</tspan></tspan></text></g></g><g id="SvgjsG1223" transform="translate(544,211)"><path id="SvgjsPath1224" d="M 0 0L 100 0L 100 70L 0 70Z" stroke="#323232" stroke-width="2" fill-opacity="1" fill="#ffffff"></path><g id="SvgjsG1225"><text id="SvgjsText1226" font-family="微软雅黑" text-anchor="middle" font-size="13px" width="44" fill="#323232" font-weight="400" align="middle" anchor="middle" family="微软雅黑" size="13px" weight="400" font-style="" y="25.05" transform="rotate(0)"><tspan id="SvgjsTspan1227" dy="16" x="50"><tspan id="SvgjsTspan1228" style="text-decoration:;">Node 4</tspan></tspan></text></g></g><g id="SvgjsG1229" transform="translate(689.650339321982,129)"><path id="SvgjsPath1230" d="M 0 0L 113 0L 113 30L 0 30Z" stroke="#323232" stroke-width="2" fill-opacity="1" fill="#ffff00"></path><g id="SvgjsG1231"><text id="SvgjsText1232" font-family="微软雅黑" text-anchor="middle" font-size="13px" width="78" fill="#323232" font-weight="700" align="middle" anchor="middle" family="微软雅黑" size="13px" weight="700" font-style="" y="5.05" transform="rotate(0)"><tspan id="SvgjsTspan1233" dy="16" x="56.5"><tspan id="SvgjsTspan1234" style="text-decoration:;">进程管理功能</tspan></tspan></text></g></g><g id="SvgjsG1235" transform="translate(689.650339321982,159)"><path id="SvgjsPath1236" d="M 0 0L 113 0L 113 30L 0 30Z" stroke="#323232" stroke-width="2" fill-opacity="1" fill="#ffff00"></path><g id="SvgjsG1237"><text id="SvgjsText1238" font-family="微软雅黑" text-anchor="middle" font-size="13px" width="88" fill="#323232" font-weight="700" align="middle" anchor="middle" family="微软雅黑" size="13px" weight="700" font-style="" y="5.05" transform="rotate(0)"><tspan id="SvgjsTspan1239" dy="16" x="56.5"><tspan id="SvgjsTspan1240" style="text-decoration:;">Open API 功能</tspan></tspan></text></g></g><g id="SvgjsG1241" transform="translate(689.650339321982,189)"><path id="SvgjsPath1242" d="M 0 0L 113 0L 113 30L 0 30Z" stroke="#323232" stroke-width="2" fill-opacity="1" fill="#ffff00"></path><g id="SvgjsG1243"><text id="SvgjsText1244" font-family="微软雅黑" text-anchor="middle" font-size="13px" width="92" fill="#323232" font-weight="700" align="middle" anchor="middle" family="微软雅黑" size="13px" weight="700" font-style="" y="5.05" transform="rotate(0)"><tspan id="SvgjsTspan1245" dy="16" x="56.5"><tspan id="SvgjsTspan1246" style="text-decoration:;">WebUI管理功能</tspan></tspan></text></g></g><g id="SvgjsG1247"><path id="SvgjsPath1248" d="M723.400339321982 159L723.400339321982 159L746.150339321982 159L746.150339321982 159" stroke="#323232" stroke-width="2" fill="none" marker-end="url(#SvgjsMarker1249)"></path></g><g id="SvgjsG1251" transform="translate(660,104)"><path id="SvgjsPath1252" d="M 0 140Q 9 140 9 131L 9 79Q 9 70 22 70Q 9 70 9 61L 9 9Q 9 0 0 0" stroke="#323232" stroke-width="2" fill-opacity="1" fill="#ffff00"></path><path id="SvgjsPath1253" d="M 0 0L 100 0L 100 140L 0 140Z" stroke="none" fill="none"></path><g id="SvgjsG1254"><text id="SvgjsText1255" font-family="微软雅黑" text-anchor="start" font-size="13px" width="0" fill="#323232" font-weight="400" align="middle" anchor="start" family="微软雅黑" size="13px" weight="400" font-style="" y="60.05" transform="rotate(0)"></text></g></g></svg>